#!OML:ASF E:\Mandelcareful walks\Project 1\Capture day 1\Session 1\Subject1.ASF
:FULLY-SPECIFIED
:DEGREES
713
root 3.49387 15.146 -9.28861 230.871 -78.1208 145.084
lowerback 30.1569 -1.19108 3.21603
upperback 7.32224 -1.34758 -0.497819
thorax -8.37256 -0.981751 -1.8898
lowerneck -31.613 3.81365 -3.17461
upperneck 17.8817 10.6186 -16.7163
head 12.1208 1.99877 -3.83708
rclavicle 2.54444e-014 2.06736e-014
rhumerus -22.4377 18.7326 -91.3892
rradius 41.2188
rwrist -60.353
rhand 11.6208 -40.1885
rfingers 7.12502
rthumb 36.6619 -66.3396
lclavicle 2.54444e-014 2.06736e-014
lhumerus -168.364 -101.073 264.221
lradius 52.9864
lwrist 3.9137
lhand -19.6947 -13.4672
lfingers 7.12502
lthumb 6.63457 16.4089
rfemur -52.7601 -6.60823 3.97529
rtibia 59.9067
rfoot -18.7001 -8.76966
rtoes -8.70934
lfemur -50.82 17.3279 -23.9579
ltibia 73.0446
lfoot -11.5057 -20.4221
ltoes -16.5092
714
root 3.43306 15.1187 -9.40511 235.7 -78.702 140.158
lowerback 30.3391 -1.38063 3.32737
upperback 7.30638 -1.53816 -0.485468
thorax -8.49025 -1.07066 -1.8683
lowerneck -32.0168 2.44781 -4.42094
upperneck 18.0469 8.96751 -15.3704
head 11.9528 1.33023 -3.45856
rclavicle 3.97569e-014 2.8625e-014
rhumerus -22.5145 19.5327 -91.2838
rradius 41.2842
rwrist -60.7632
rhand 11.357 -40.939
rfingers 7.12502
rthumb 36.4122 -67.1531
lclavicle 3.97569e-014 2.8625e-014
lhumerus -171.726 -102.124 267.934
lradius 52.6423
lwrist 2.93545
lhand -19.8246 -13.8967
lfingers 7.12502
lthumb 6.50918 15.9833
rfemur -52.7239 -7.13001 3.82367
rtibia 61.0718
rfoot -19.6616 -9.10222
rtoes -7.74658
lfemur -51.5979 18.7868 -23.8473
ltibia 73.8112
lfoot -10.5921 -20.1131
ltoes -25.7148
715
root 3.37515 15.0784 -9.50084 244.435 -79.5784 131.143
lowerback 30.6558 -2.02008 3.92726
upperback 7.41908 -2.16338 -0.542149
thorax -8.56485 -1.37163 -2.04408
lowerneck -32.7464 0.998407 -5.79822
upperneck 18.1574 7.25443 -13.7855
head 11.8464 0.653241 -2.98107
rclavicle -7.95139e-016 -2.38542e-015
rhumerus -22.2567 20.2381 -91.1505
rradius 41.3604
rwrist -61.2201
rhand 13.0203 -35.4542
rfingers 7.12502
rthumb 37.985 -61.2575
lclavicle -7.95139e-016 -2.38542e-015
lhumerus -171.904 -102.597 268.226
lradius 52.5051
lwrist 2.79202
lhand -21.567 -14.9639
lfingers 7.12502
lthumb 4.82684 14.9612
rfemur -52.1373 -8.48061 3.80039
rtibia 62.2522
rfoot -20.5393 -9.43795
rtoes -8.04887
lfemur -52.2336 19.1832 -23.7144
ltibia 74.1884
lfoot -9.57396 -19.5854
ltoes -25.6195
716
root 3.3222 15.0167 -9.60012 249.864 -79.9274 125.696
lowerback 30.7845 -2.12986 4.16672
upperback 7.46544 -2.24182 -0.73641
thorax -8.59206 -1.41039 -2.37132
lowerneck -32.8927 -0.497898 -6.74897
upperneck 18.2202 5.22024 -12.0892
head 11.6655 -0.0757524 -2.57614
rclavicle -2.3059e-014 1.90833e-014
rhumerus -22.2136 20.2191 -91.2496
rradius 41.3886
rwrist -61.318
rhand 13.2197 -35.6406
rfingers 7.12502
rthumb 38.1733 -61.3925
lclavicle -2.3059e-014 1.90833e-014
lhumerus -172.019 -102.422 268.197
lradius 52.6719
lwrist 3.26136
lhand -21.9528 -15.1765
lfingers 7.12502
lthumb 4.45433 14.7567
rfemur -52.0713 -9.37219 4.2623
rtibia 63.4827
rfoot -20.9804 -9.99959
rtoes -9.99516
lfemur -53.0712 20.2895 -23.546
ltibia 74.1794
lfoot -11.3698 -15.342
ltoes -28.1009
717
root 3.25434 14.9746 -9.6893 253.589 -80.2402 122.112
lowerback 30.579 -2.14393 4.34272
upperback 7.62193 -2.2399 -0.900031
thorax -8.32582 -1.40722 -2.66641
lowerneck -33.1087 -1.97023 -7.84394
upperneck 18.1424 3.21317 -10.0395
head 11.4906 -0.742605 -2.00384
rclavicle 1.74931e-014 4.77083e-015
rhumerus -22.006 20.4058 -91.3082
rradius 41.4342
rwrist -61.3788
rhand 13.8453 -35.9973
rfingers 7.12502
rthumb 38.7637 -61.5846
lclavicle 1.74931e-014 4.77083e-015
lhumerus -171.828 -102.526 267.823
lradius 52.752
lwrist 3.05094
lhand -22.6221 -15.7699
lfingers 7.12502
lthumb 3.808 14.1758
rfemur -52.2407 -9.52821 4.42312
rtibia 64.5842
rfoot -21.8864 -10.1149
rtoes -8.73451
lfemur -53.5575 21.3588 -23.1648
ltibia 73.4996
lfoot -12.6871 -10.355
ltoes -26.9148
718
root 3.16637 14.949 -9.75918 257.853 -80.3504 117.983
lowerback 30.1894 -2.2176 4.36745
upperback 7.86278 -2.37618 -1.09009
thorax -7.88545 -1.46379 -2.85767
lowerneck -33.5999 -3.76723 -9.41275
upperneck 18.1613 0.877777 -7.27321
head 11.4571 -1.49566 -1.15982
rclavicle -2.78299e-014 -2.8625e-014
rhumerus -21.6676 20.9255 -91.2891
rradius 41.5229
rwrist -61.5659
rhand 14.4689 -36.6036
rfingers 7.12502
rthumb 39.3515 -62.022
lclavicle -2.78299e-014 -2.8625e-014
lhumerus -171.104 -102.753 266.89
lradius 52.7713
lwrist 2.53564
lhand -24.3505 -16.9243
lfingers 7.12502
lthumb 2.13882 13.0448
rfemur -52.1757 -9.73531 4.27879
rtibia 65.5322
rfoot -22.9033 -10.7051
rtoes -10.472
lfemur -53.5719 21.9078 -22.7913
ltibia 72.0422
lfoot -14.2773 -5.64755
ltoes -25.5527
719
root 3.13683 14.9038 -9.83405 261.592 -80.2708 114.599
lowerback 30.281 -2.2314 3.77723
upperback 7.82634 -2.56098 -1.14597
thorax -7.97212 -1.54281 -2.50925
lowerneck -33.5178 -5.47433 -11.3729
upperneck 17.7444 -1.26263 -4.5019
head 11.2843 -2.15935 -0.205942
rclavicle 1.98785e-014 4.77083e-014
rhumerus -21.5071 22.0871 -91.2649
rradius 41.6404
rwrist -61.9668
rhand 14.9276 -36.1671
rfingers 7.12502
rthumb 39.7835 -61.4581
lclavicle 1.98785e-014 4.77083e-014
lhumerus -171.576 -103.614 267.247
lradius 52.8128
lwrist 2.34029
lhand -24.7226 -17.4034
lfingers 7.12502
lthumb 1.77945 12.5689
rfemur -52.8497 -9.69418 4.16806
rtibia 66.407
rfoot -23.3075 -11.5094
rtoes -11.9186
lfemur -54.1549 22.1219 -22.3972
ltibia 69.9137
lfoot -14.5864 -1.45563
ltoes -23.3731
720
root 3.0741 14.8851 -9.87592 265.321 -80.3354 111.318
lowerback 29.7485 -2.16144 3.86348
upperback 7.97824 -2.4951 -1.42487
thorax -7.55663 -1.50349 -2.91211
lowerneck -33.266 -6.87851 -12.2267
upperneck 17.054 -3.35766 -2.41557
head 11.0638 -2.81432 0.332712
rclavicle 1.66979e-014 -1.98785e-014
rhumerus -21.3132 22.1423 -91.2774
rradius 41.776
rwrist -62.3246
rhand 15.7534 -36.9679
rfingers 7.12502
rthumb 40.5604 -62.0224
lclavicle 1.66979e-014 -1.98785e-014
lhumerus -170.627 -103.323 266.097
lradius 52.8636
lwrist 2.16256
lhand -24.8736 -17.35
lfingers 7.12502
lthumb 1.6336 12.6235
rfemur -53.2084 -10.2125 4.20254
rtibia 66.9835
rfoot -23.5654 -11.4891
rtoes -11.6999
lfemur -54.3213 21.9692 -21.88
ltibia 67.2232
lfoot -14.3167 2.19868
ltoes -19.4944
721
root 3.00531 14.8923 -9.92014 270.19 -80.5452 106.509
lowerback 29.7704 -2.24333 3.81128
upperback 8.11652 -2.62473 -1.47193
thorax -7.4212 -1.56196 -2.89043
lowerneck -32.7124 -7.95317 -12.8552
upperneck 16.0164 -5.03737 -0.851275
head 10.6991 -3.34919 0.724839
rclavicle 2.38542e-015 5.56597e-015
rhumerus -21.2005 22.5257 -91.2012
rradius 41.8756
rwrist -62.6576
rhand 15.5057 -36.4599
rfingers 7.12502
rthumb 40.3275 -61.5863
lclavicle 2.38542e-015 5.56597e-015
lhumerus -169.7 -103.245 265.09
lradius 52.8281
lwrist 2.06658
lhand -25.3584 -17.0428
lfingers 7.12502
lthumb 1.16538 12.9338
rfemur -52.849 -10.5654 4.27364
rtibia 67.3704
rfoot -23.954 -11.7308
rtoes -10.3606
lfemur -53.8622 21.4528 -20.937
ltibia 64.1152
lfoot -13.5374 4.95422
ltoes -15.21
722
root 2.94262 14.9001 -9.95326 274.392 -80.8025 102.481
lowerback 29.8886 -2.26446 3.72885
upperback 8.10174 -2.66242 -1.45285
thorax -7.49387 -1.57767 -2.8051
lowerneck -32.3473 -8.85237 -13.7362
upperneck 15.6242 -6.3341 0.934364
head 10.6494 -3.72826 1.28934
rclavicle -9.54166e-015 -1.27222e-014
rhumerus -21.0314 22.6468 -91.1885
rradius 41.5161
rwrist -62.6935
rhand 15.9345 -37.0357
rfingers 7.12502
rthumb 40.7305 -62.0371
lclavicle -9.54166e-015 -1.27222e-014
lhumerus -169.93 -103.408 265.389
lradius 52.7804
lwrist 2.36547
lhand -25.2015 -17.0147
lfingers 7.12502
lthumb 1.31696 12.961
rfemur -52.5606 -10.5436 4.26342
rtibia 67.5119
rfoot -24.5775 -12.3382
rtoes -8.75599
lfemur -53.6048 20.9076 -19.862
ltibia 60.9016
lfoot -12.4513 7.04374
ltoes -12.0526
723
root 2.87509 14.9001 -9.97326 278.576 -81.0806 98.3797
lowerback 30.1129 -2.26099 3.71019
upperback 8.06014 -2.64705 -1.44111
thorax -7.64518 -1.57011 -2.78086
lowerneck -31.9043 -9.62875 -14.3274
upperneck 15.3193 -7.53827 2.43053
head 10.6333 -4.09649 1.71694
rclavicle 3.33958e-014 3.65764e-014
rhumerus -20.9378 22.3928 -91.2929
rradius 40.9954
rwrist -62.5764
rhand 16.0488 -37.3075
rfingers 7.12502
rthumb 40.838 -62.2752
lclavicle 3.33958e-014 3.65764e-014
lhumerus -170.695 -103.511 266.26
lradius 52.5975
lwrist 2.45835
lhand -25.4798 -17.4751
lfingers 7.12502
lthumb 1.04819 12.5021
rfemur -52.1655 -10.7533 4.61328
rtibia 67.6542
rfoot -25.0549 -12.3533
rtoes -11.3891
lfemur -53.1855 20.4149 -18.7464
ltibia 57.7886
lfoot -11.1925 8.61492
ltoes -11.2066
724
root 2.81174 14.9002 -9.97784 283.37 -81.1727 93.6645
lowerback 30.3211 -2.27789 3.62545
upperback 8.02287 -2.68224 -1.48077
thorax -7.7884 -1.58526 -2.75837
lowerneck -31.3345 -10.265 -14.7085
upperneck 14.9266 -8.60242 3.63179
head 10.5597 -4.43571 2.03081
rclavicle -3.18055e-015 1.74931e-014
rhumerus -20.9971 21.9166 -91.4264
rradius 40.7522
rwrist -62.4553
rhand 16.1934 -36.1402
rfingers 7.12502
rthumb 40.9738 -61.0649
lclavicle -3.18055e-015 1.74931e-014
lhumerus -170.947 -103.401 266.556
lradius 52.3745
lwrist 2.21683
lhand -25.856 -17.3617
lfingers 7.12502
lthumb 0.684787 12.617
rfemur -51.7837 -11.0927 4.75458
rtibia 67.775
rfoot -25.2545 -13.0553
rtoes -14.9114
lfemur -52.8775 19.8007 -17.859
ltibia 54.9596
lfoot -9.52726 9.52493
ltoes -11.7104
725
root 2.75687 14.9038 -9.96891 287.7 -81.0623 89.4763
lowerback 30.3758 -2.21406 3.41026
upperback 8.09927 -2.67713 -1.59895
thorax -7.72594 -1.57909 -2.769
lowerneck -30.8273 -10.8711 -15.0137
upperneck 14.391 -9.64831 4.8542
head 10.4595 -4.76552 2.34025
rclavicle -2.78299e-014 1.03368e-014
rhumerus -20.8031 21.3693 -91.4218
rradius 40.5174
rwrist -62.4872
rhand 16.1058 -36.9442
rfingers 7.12502
rthumb 40.8915 -61.895
lclavicle -2.78299e-014 1.03368e-014
lhumerus -170.321 -103.192 265.925
lradius 52.3585
lwrist 2.30251
lhand -25.3012 -16.991
lfingers 7.12502
lthumb 1.22065 12.9853
rfemur -51.5522 -11.3644 4.58019
rtibia 67.9044
rfoot -25.4179 -13.3068
rtoes -15.6303
lfemur -52.7352 19.1647 -17.229
ltibia 52.5992
lfoot -7.83225 9.7783
ltoes -11.0283
726
root 2.69833 14.9095 -9.95513 291.056 -80.9954 86.258
lowerback 30.3824 -2.08171 3.01373
upperback 8.25898 -2.64459 -1.66898
thorax -7.53574 -1.55968 -2.6326
lowerneck -30.4166 -11.4835 -15.5534
upperneck 13.6795 -10.6515 6.40996
head 10.3613 -5.05403 2.80783
rclavicle -1.43125e-014 -2.78299e-015
rhumerus -20.4744 21.3091 -91.3689
rradius 40.2551
rwrist -62.5761
rhand 15.4288 -34.2413
rfingers 7.12502
rthumb 40.2551 -59.3899
lclavicle -1.43125e-014 -2.78299e-015
lhumerus -169.211 -103.164 264.748
lradius 52.5332
lwrist 2.98507
lhand -24.6316 -17.1542
lfingers 7.12502
lthumb 1.86735 12.8174
rfemur -51.3342 -11.4148 4.44332
rtibia 68.006
rfoot -25.5043 -13.5862
rtoes -15.6124
lfemur -52.6274 18.8886 -16.783
ltibia 50.76
lfoot -6.41229 9.81923
ltoes -10.3517
727
root 2.63871 14.9095 -9.92971 295.316 -81.1387 82.1722
lowerback 30.5215 -2.05979 2.77435
upperback 8.25529 -2.67659 -1.63622
thorax -7.59853 -1.572 -2.44249
lowerneck -29.5908 -12.0161 -16.3187
upperneck 12.6943 -11.5497 8.14329
head 10.1433 -5.30563 3.4002
rclavicle -3.81667e-014 -2.38542e-014
rhumerus -20.5539 21.5928 -91.5406
rradius 40.184
rwrist -62.3724
rhand 16.3851 -25.9592
rfingers 7.12502
rthumb 41.1538 -50.8265
lclavicle -3.81667e-014 -2.38542e-014
lhumerus -169.427 -103.38 264.953
lradius 52.5634
lwrist 3.65394
lhand -24.2789 -16.8335
lfingers 7.12502
lthumb 2.20803 13.1348
rfemur -51.0937 -11.3482 4.52265
rtibia 68.0596
rfoot -25.6061 -14.1141
rtoes -15.3983
lfemur -52.8684 18.8667 -16.4343
ltibia 49.4402
lfoot -5.06246 9.89412
ltoes -11.3636
